<svg width="24" height="24" viewBox="0 0 24 24" fill="none" xmlns="http://www.w3.org/2000/svg">
<path d="M12.8652 2.99628C12.4799 2.33213 11.5208 2.33213 11.1354 2.99628L8.42132 7.67359C8.23094 8.00168 7.90189 8.22557 7.52683 8.28222L2.44052 9.05044C1.58623 9.17947 1.28658 10.2581 1.95188 10.8093L5.74097 13.9485C6.09171 14.2391 6.25663 14.6975 6.17143 15.1449L5.18026 20.35C5.02358 21.1729 5.88737 21.8122 6.62852 21.4219L11.4179 18.9001C11.7825 18.7082 12.2182 18.7082 12.5827 18.9001L17.3721 21.4219C18.1132 21.8122 18.977 21.1729 18.8203 20.35L17.8292 15.1449C17.744 14.6975 17.9089 14.2391 18.2596 13.9485L22.0487 10.8093C22.714 10.2581 22.4144 9.17947 21.5601 9.05044L16.4738 8.28222C16.0987 8.22557 15.7697 8.00168 15.5793 7.67359L12.8652 2.99628Z" fill="#C3CAD4"/>
</svg>
